Coordinates
version=1
nRows=11
nColumns=36
inDegrees=yes

Units are S.I. units (second, meters, Newtons, ...)
If the header above contains a line with 'inDegrees', this indicates whether rotational values are in degrees (yes) or radians (no).

endheader
time	pelvis_tilt	pelvis_list	pelvis_rotation	pelvis_tx	pelvis_ty	pelvis_tz	hip_flexion_r	hip_adduction_r	hip_rotation_r	knee_angle_r	knee_angle_r_beta	ankle_angle_r	subtalar_angle_r	mtp_angle_r	hip_flexion_l	hip_adduction_l	hip_rotation_l	knee_angle_l	knee_angle_l_beta	ankle_angle_l	subtalar_angle_l	mtp_angle_l	lumbar_extension	lumbar_bending	lumbar_rotation	arm_flex_r	arm_add_r	arm_rot_r	elbow_flex_r	pro_sup_r	arm_flex_l	arm_add_l	arm_rot_l	elbow_flex_l	pro_sup_l
     16.48333330	    -19.27367632	      2.54417075	     -8.14831395	     -0.12386290	      0.70562492	     -0.01068651	     86.98737931	     -7.64919073	      4.10027681	     82.27282699	      1.43593172	     26.79179848	     10.32991838	     -7.49999987	     88.31980583	    -12.97966999	      3.51961846	     84.64544132	      1.47734165	     22.14026195	      6.83016097	     -7.49999987	    -33.78734274	      6.16055051	      9.34103464	     24.44942463	    -25.86148714	     -8.43301357	     80.94980741	     77.25515616	     36.81819448	    -15.25248087	     21.73593013	     91.55234439	     72.85569945
     16.50000000	    -19.08640684	      2.33654610	     -8.09922162	     -0.12428306	      0.70538630	     -0.01142738	     86.88663535	     -7.59882499	      4.06272955	     82.41637900	      1.43843717	     26.80843262	     10.17464768	     -7.49999987	     88.31648463	    -12.95012378	      3.72010640	     84.71830370	      1.47861334	     21.87198446	      6.83417186	     -7.49999987	    -33.45449859	      5.90701672	     10.13006681	     22.98348392	    -26.06947150	     -9.94164103	     81.93453965	     80.64731435	     36.87567895	    -14.69583502	     22.44659470	     91.06360767	     74.79753175
     16.51666670	    -19.02689973	      2.20805755	     -8.12310073	     -0.13423131	      0.70396627	     -0.01842391	     87.07752769	     -7.57792731	      4.05244991	     82.22759313	      1.43514224	     26.45479315	      9.97503914	     -7.49999987	     88.55486093	    -12.80546249	      3.95359027	     84.69533007	      1.47821237	     21.04624798	      6.26873595	     -7.49999987	    -33.21532830	      5.70393576	     10.33512456	     23.40742375	    -26.39308445	     -9.75734621	     81.97896026	     80.62629440	     37.17630047	    -14.68100752	     22.60475274	     91.84729293	     74.83517085
     16.53333330	    -18.45772036	      2.14820686	     -8.16632670	     -0.13461709	      0.70426457	     -0.01910360	     86.72552990	     -7.58811915	      4.15601230	     82.10276962	      1.43296365	     26.16026892	      9.68403747	     -7.49999987	     88.19382221	    -12.60112633	      3.95951907	     84.70701030	      1.47841623	     20.54045828	      5.93466331	     -7.49999987	    -33.08878371	      5.50974808	     10.30733053	     23.36895818	    -26.17239738	     -9.61912267	     81.53664217	     79.97182782	     36.70468795	    -14.51045533	     22.36663806	     91.29090339	     74.32521181
     16.55000000	    -18.13096646	      1.91051933	     -8.16011688	     -0.13459777	      0.70430788	     -0.01876581	     86.46428675	     -7.56122618	      4.08029655	     82.00725614	      1.43129663	     25.99854984	      9.72524666	     -7.49999987	     88.11857086	    -12.49925354	      4.12322983	     84.74988615	      1.47916455	     20.03218096	      5.61351696	     -7.49999987	    -32.50157741	      5.41876447	     10.50818217	     22.89258192	    -25.92988911	     -9.68249107	     79.98378235	     79.66680150	     35.63929417	    -14.46011552	     22.43840171	     89.96025424	     74.04711980
     16.56666670	    -17.44611575	      1.67611374	     -8.17249686	     -0.12555681	      0.70131011	     -0.01319335	     85.79607839	     -7.44261517	      4.12094234	     82.33103713	      1.43694767	     26.37974785	      9.70634870	     -7.49999987	     87.59216006	    -12.55948289	      4.14100142	     85.07139251	      1.48477590	     20.13660912	      5.57276425	     -7.49999987	    -31.82067166	      5.32218196	     10.40082699	     21.42946505	    -25.21517213	    -10.02028795	     79.27390743	     79.51378298	     33.94004877	    -14.60741667	     22.30531840	     88.78117885	     73.89009069
     16.58333330	    -16.79413197	      1.57985942	     -8.26494174	     -0.11515127	      0.69840657	     -0.02063336	     85.26604813	     -7.38688216	      4.40737404	     82.87770028	      1.44648875	     26.59360086	      9.77232092	     -7.49999987	     87.00166953	    -12.55458130	      4.06088125	     85.62104290	      1.49436911	     20.37281062	      5.59183167	     -7.49999987	    -30.82743654	      5.18108027	     10.93583253	     18.84191522	    -24.51705516	    -12.05948476	     79.27965770	     80.79417287	     32.25953687	    -13.73944582	     21.92781472	     87.03692354	     74.32127925
     16.60000000	    -16.51414208	      1.34783417	     -8.04984395	     -0.13860017	      0.69495230	     -0.02225788	     85.55918587	     -7.56960154	      4.35626095	     83.39863391	      1.45558075	     26.54787379	      9.76997383	     -7.49999987	     87.41015812	    -12.38375439	      4.30942018	     86.08541046	      1.50247385	     20.01833738	      5.60701252	     -7.49999987	    -30.32971138	      5.15604128	     10.58615770	     18.15861333	    -24.16989369	    -12.72773495	     79.39049833	     80.68570827	     31.93013140	    -14.20139877	     21.74072716	     87.11856779	     74.27099304
     16.61666670	    -16.15985047	      1.29127544	     -7.75922167	     -0.12880606	      0.69659402	     -0.01473319	     85.41187772	     -7.69673083	      4.52347901	     83.91167462	      1.46453500	     27.00997001	      9.76206990	     -7.49999987	     87.26596895	    -12.16183593	      4.23846995	     86.36357982	      1.50732882	     20.06769857	      5.71186601	     -7.49999987	    -29.66005007	      4.83295785	     10.40311495	     16.34431694	    -23.52568513	    -13.76570053	     79.97769558	     80.83220246	     30.29456940	    -14.28547038	     20.87525188	     86.72774980	     74.39852124
     16.63333330	    -15.30065663	      1.01946359	     -7.69640545	     -0.13980357	      0.68832925	     -0.02161080	     85.29429811	     -7.71853120	      4.51263948	     84.47961835	      1.47444749	     26.90139545	      9.69493426	     -7.49999987	     87.24154896	    -12.18427917	      4.40385177	     86.99078355	      1.51827559	     19.56610873	      5.72885859	     -7.49999987	    -29.29900211	      4.56283026	     10.30276101	     15.72122146	    -23.21264696	    -13.70240670	     80.10337792	     80.73462559	     30.20633019	    -14.42194292	     20.82927319	     87.01149759	     74.35664900
     16.65000000	    -14.80768396	      0.94822491	     -7.44215524	     -0.14084472	      0.68314192	     -0.02291188	     85.71407369	     -7.96055618	      4.61129200	     85.28816516	      1.48855930	     27.18394530	      9.88022699	     -7.49999987	     87.63741357	    -12.03517665	      4.31230322	     87.71736757	      1.53095688	     19.04635818	      5.89952855	     -7.49999987	    -28.59206139	      4.15788092	      9.84208339	     14.00664046	    -22.42347050	    -14.02693282	     81.09402710	     80.66103986	     29.53581384	    -14.87186225	     20.94110292	     88.47244545	     74.45742794
